<?xml version="1.0" encoding="UTF-8" standalone="no"?>
<svg
   width="20.000166"
   height="19.591999"
   version="1.1"
   id="svg4"
   sodipodi:docname="github-mark.svg"
   inkscape:version="1.2.1 (9c6d41e410, 2022-07-14)"
   xmlns:inkscape="http://www.inkscape.org/namespaces/inkscape"
   xmlns:sodipodi="http://sodipodi.sourceforge.net/DTD/sodipodi-0.dtd"
   xmlns="http://www.w3.org/2000/svg"
   xmlns:svg="http://www.w3.org/2000/svg">
  <defs
     id="defs8" />
  <sodipodi:namedview
     id="namedview6"
     pagecolor="#ffffff"
     bordercolor="#666666"
     borderopacity="1.0"
     inkscape:showpageshadow="2"
     inkscape:pageopacity="0.0"
     inkscape:pagecheckerboard="0"
     inkscape:deskcolor="#d1d1d1"
     showgrid="false"
     inkscape:zoom="34.666667"
     inkscape:cx="15.461538"
     inkscape:cy="10.600962"
     inkscape:window-width="1920"
     inkscape:window-height="1010"
     inkscape:window-x="-7"
     inkscape:window-y="-7"
     inkscape:window-maximized="1"
     inkscape:current-layer="svg4" />
  <path
     fill-rule="evenodd"
     clip-rule="evenodd"
     d="m 9.9853846,0 c -5.5216597,0 -9.9853846,4.496632 -9.9853846,10.059579 0,4.44676 2.8600624,8.21085 6.827727,9.54308 0.4960602,0.100152 0.677765,-0.216452 0.677765,-0.482775 0,-0.233212 -0.016351,-1.03259 -0.016351,-1.865489 -2.7776922,0.599687 -3.3561226,-1.19917 -3.3561226,-1.19917 -0.4463929,-1.165854 -1.1078066,-1.465494 -1.1078066,-1.465494 -0.9091372,-0.616243 0.066223,-0.616243 0.066223,-0.616243 1.008472,0.06663 1.5376438,1.032591 1.5376438,1.032591 0.8925814,1.532125 2.3308905,1.099222 2.9095253,0.832694 0.082574,-0.649559 0.3472626,-1.099222 0.6283021,-1.348989 -2.2154088,-0.233212 -4.5462993,-1.099223 -4.5462993,-4.9632603 0,-1.0992221 0.3965211,-1.9985485 1.0248233,-2.6979792 -0.09913,-0.2497674 -0.446393,-1.2825621 0.099335,-2.6648676 0,0 0.8431185,-0.2665277 2.7441719,1.0325902 a 9.6003094,9.6003094 0 0 1 2.4964483,-0.3331596 c 0.8431188,0 1.7025888,0.1167081 2.4962448,0.3331596 1.901257,-1.2991179 2.744376,-1.0325902 2.744376,-1.0325902 0.545727,1.3823055 0.19826,2.4151002 0.09913,2.6648676 0.644858,0.6994307 1.025028,1.5987571 1.025028,2.6979792 0,3.8640373 -2.330891,4.7132883 -4.562855,4.9632603 0.363818,0.316399 0.677765,0.915882 0.677765,1.865284 0,1.34899 -0.01635,2.431656 -0.01635,2.764611 0,0.266528 0.18191,0.583132 0.677765,0.483184 3.967665,-1.332638 6.827727,-5.096524 6.827727,-9.543284 0.01635,-5.562947 -4.463724,-10.059579 -9.9688288,-10.059579 z"
     fill="#24292f"
     id="path2"
     style="stroke-width:0.204392" />
</svg>
